<svg enable-background="new 0 0 185 185" viewBox="0 0 185 185" xmlns="http://www.w3.org/2000/svg"><path d="m92.12 185.48c-18.19 0-36.3-5.4-52.06-16.09l19.85-29.25c18.1 12.28 41.21 13.28 60.32 2.6l17.25 30.86c-14.22 7.93-29.82 11.88-45.36 11.88z" fill="#f44a19"/><path d="m137.47 173.59-17.25-30.86c7.82-4.37 14.36-10.38 19.44-17.87 8.61-12.69 11.77-27.98 8.89-43.04l34.72-6.65c4.66 24.34-.44 49.03-14.35 69.54-8.2 12.08-18.78 21.8-31.45 28.88z" fill="#ff3b5c"/><path d="m148.55 81.82c-2.88-15.06-11.46-28.1-24.15-36.72l19.85-29.25c20.5 13.92 34.36 34.98 39.02 59.32z" fill="#ffb713"/></svg>