<svg enable-background="new 0 0 185 185" viewBox="0 0 185 185" xmlns="http://www.w3.org/2000/svg"><path d="m9.79 133.6c-6.48-12.87-9.9-27.33-9.9-41.83h35.17c0 9.11 2.06 17.82 6.11 25.87z" fill="#ff8cb9"/><path d="m92.19 184.54c-35.01 0-66.59-19.52-82.41-50.94l31.38-15.96c9.79 19.46 29.34 31.55 51.02 31.55v35.35z" fill="#dbd600"/><path d="m115.48 181.56-8.85-34.21c4.92-1.28 9.64-3.23 14.06-5.79l17.57 30.63c-7.15 4.13-14.82 7.28-22.78 9.37z" fill="#f44a19"/><path d="m157.47 157.36-24.87-25c10.79-10.85 16.73-25.27 16.73-40.6h35.17c0 24.78-9.6 48.08-27.03 65.6z" fill="#ff3b5c"/><path d="m184.5 92.44h-35.17c0-31.66-25.63-57.42-57.13-57.42-9.94 0-19.72 2.6-28.29 7.52l-17.45-30.7c13.87-7.97 29.68-12.18 45.73-12.18 50.9 0 92.31 41.62 92.31 92.78z" fill="#5200c6"/><path d="m35.06 92.44h-35.17c0-33.22 17.85-64.11 46.57-80.6l17.45 30.7c-17.79 10.21-28.85 29.33-28.85 49.9z" fill="#b64942"/></svg>