<svg enable-background="new 0 0 185 185" viewBox="0 0 185 185" xmlns="http://www.w3.org/2000/svg"><path d="m27.11 158.32c-36.17-36.17-36.17-95.03 0-131.2 36.17-36.17 95.03-36.17 131.2 0l-25 25c-10.85-10.85-25.27-16.82-40.6-16.82-15.34 0-29.76 5.97-40.6 16.82-22.39 22.39-22.39 58.82 0 81.21z" fill="#17badb"/><path d="m92.24 185.01c-24.78 0-48.08-9.65-65.6-27.17l25-25c10.84 10.85 25.26 16.82 40.6 16.82s29.76-5.97 40.6-16.82c10.85-10.85 16.82-25.27 16.82-40.6 0-15.34-5.97-29.76-16.82-40.6l25-25c17.52 17.52 27.17 40.82 27.17 65.6s-9.65 48.08-27.17 65.6-40.82 27.17-65.6 27.17z" fill="#ff8cb9"/></svg>