<svg enable-background="new 0 0 185 185" viewBox="0 0 185 185" xmlns="http://www.w3.org/2000/svg"><path d="m185.17 92.79h-35.37c0-31.66-25.78-57.42-57.46-57.42-13.36 0-25.89 4.44-36.24 12.85l-22.33-27.42c16.49-13.4 37.29-20.79 58.57-20.79 51.19 0 92.83 41.62 92.83 92.78z" fill="#ffb713"/><path d="m34.88 92.79h-35.38c0-28.04 12.49-54.27 34.27-71.99l22.33 27.42c-13.49 10.97-21.22 27.21-21.22 44.57z" fill="#4646e0"/><path d="m92.34 184.89v-35.35c31.68 0 57.46-25.76 57.46-57.42h35.38c-.01 51.15-41.65 92.77-92.84 92.77z" fill="#d1edff"/></svg>