<svg enable-background="new 0 0 185 185" viewBox="0 0 185 185" xmlns="http://www.w3.org/2000/svg"><path d="m35.3 92.91h-35.15c0-51.16 41.39-92.77 92.26-92.77 21.15 0 41.82 7.38 58.2 20.79l-22.19 27.42c-10.28-8.41-22.73-12.85-36.01-12.85-31.49-.01-57.11 25.75-57.11 57.41z" fill="#ffb713"/><path d="m184.66 92.91h-35.15c0-17.35-7.69-33.6-21.09-44.57l22.19-27.42c21.64 17.71 34.05 43.95 34.05 71.99z" fill="#b64942"/><path d="m92.41 185.01c-50.87 0-92.26-41.62-92.26-92.77h35.15c0 31.66 25.62 57.42 57.1 57.42v35.35z" fill="#5200c6"/></svg>