<svg enable-background="new 0 0 185 185" viewBox="0 0 185 185" xmlns="http://www.w3.org/2000/svg"><path d="m166.95 147.34-28.43-21c16.71-22.63 14.29-54.72-5.65-74.65l25-25c15.8 15.8 25.37 36.77 26.94 59.04 1.55 22.04-4.79 43.92-17.86 61.61z" fill="#f44a19"/><path d="m92.26 185.01c-23.76 0-47.51-9.04-65.6-27.13l25-25c22.39 22.39 58.82 22.39 81.21 0 2.05-2.04 3.95-4.25 5.65-6.55l28.43 21.01c-2.74 3.71-5.8 7.26-9.08 10.54-18.09 18.09-41.85 27.13-65.61 27.13z" fill="#009f45"/><path d="m27.14 158.36c-17.52-17.52-27.17-40.82-27.17-65.6s9.65-48.08 27.17-65.6c17.52-17.52 40.82-27.17 65.6-27.17s48.08 9.65 65.6 27.17l-25 25c-10.85-10.84-25.27-16.82-40.6-16.82-15.34 0-29.76 5.97-40.6 16.82s-16.82 25.27-16.82 40.6 5.97 29.76 16.82 40.6z" fill="#b64942"/></svg>