<svg enable-background="new 0 0 185 185" viewBox="0 0 185 185" xmlns="http://www.w3.org/2000/svg"><path d="m134.3 53.8c-10.49-11.5-24.83-18.14-40.4-18.7l1.27-35.27c25.15.9 48.33 11.63 65.27 30.21z" fill="#ff3b5c"/><path d="m184.55 95.72-35.33-1.27c.54-15.07-4.76-29.5-14.92-40.65l26.14-23.76c16.43 18.01 24.99 41.34 24.11 65.68z" fill="#b64942"/><path d="m91.88 185c-1.12 0-2.25-.02-3.38-.06l1.27-35.27c31.61 1.12 58.31-23.64 59.45-55.22l35.33 1.27c-1.8 49.9-43.04 89.28-92.67 89.28z" fill="#ff3b5c"/><path d="m89.17 184.96c-30.85-1.11-59.03-17.39-75.4-43.55l29.99-18.69c10.14 16.21 27.59 26.29 46.68 26.98z" fill="#d1edff"/><path d="m40.43 68.22-32.04-14.91c15.78-33.81 50.12-54.8 87.46-53.45l-1.27 35.27c-23.14-.84-44.38 12.16-54.15 33.09z" fill="#ff51da"/></svg>