<svg enable-background="new 0 0 185 185" viewBox="0 0 185 185" xmlns="http://www.w3.org/2000/svg"><path d="m175.32 134-31.54-15.96c4.08-8.06 6.14-16.76 6.14-25.88h35.35c0 14.71-3.34 28.79-9.95 41.84z" fill="#d1edff"/><path d="m92.5 184.94v-35.35c21.79 0 41.44-12.09 51.28-31.55l31.54 15.96c-15.89 31.42-47.63 50.94-82.82 50.94z" fill="#dbd600"/><path d="m69.1 181.96c-8.01-2.08-15.71-5.24-22.89-9.38l17.66-30.63c4.44 2.56 9.19 4.51 14.13 5.79z" fill="#ff3b5c"/><path d="m26.9 157.76c-17.52-17.52-27.17-40.82-27.17-65.6h35.35c0 15.34 5.97 29.76 16.82 40.6z" fill="#4646e0"/><path d="m35.08 92.84h-35.35c0-51.16 41.62-92.77 92.77-92.77 16.13 0 32.02 4.21 45.97 12.17l-17.54 30.7c-8.61-4.92-18.44-7.52-28.43-7.52-31.66 0-57.42 25.75-57.42 57.42z" fill="#ff8cb9"/><path d="m185.27 92.84h-35.35c0-20.57-11.11-39.69-28.99-49.91l17.54-30.7c28.87 16.5 46.8 47.38 46.8 80.61z" fill="#17badb"/></svg>