<svg enable-background="new 0 0 185 185" viewBox="0 0 185 185" xmlns="http://www.w3.org/2000/svg"><path d="m92.83 185c-15.54 0-31.13-3.94-45.35-11.89l17.25-30.86c19.11 10.68 42.22 9.68 60.32-2.6l19.85 29.25c-15.76 10.7-33.88 16.1-52.07 16.1z" fill="#ff3b5c"/><path d="m47.48 173.11c-12.67-7.08-23.25-16.79-31.45-28.87-13.91-20.51-19.01-45.2-14.35-69.54l34.72 6.65c-2.88 15.06.27 30.35 8.88 43.04 5.08 7.48 11.62 13.49 19.44 17.87z" fill="#4646e0"/><path d="m36.4 81.35-34.72-6.65c4.66-24.34 18.52-45.41 39.02-59.32l19.85 29.25c-12.69 8.61-21.26 21.65-24.15 36.72z" fill="#ffb713"/></svg>