<svg enable-background="new 0 0 185 185" viewBox="0 0 185 185" xmlns="http://www.w3.org/2000/svg"><path d="m157.52 158.41-25-25c22.39-22.39 22.39-58.82 0-81.21-10.85-10.85-25.27-16.82-40.6-16.82-15.34 0-29.76 5.97-40.6 16.82l-25-25c17.52-17.51 40.82-27.16 65.6-27.16s48.08 9.65 65.6 27.17c36.17 36.17 36.17 95.03 0 131.2z" fill="#dbd600"/><path d="m92.39 185.07c-23.76 0-47.51-9.04-65.6-27.13-36.17-36.17-36.17-95.03 0-131.2l25 25c-10.85 10.84-16.82 25.26-16.82 40.6s5.97 29.76 16.82 40.6c22.39 22.39 58.82 22.39 81.21 0l25 25c-18.09 18.08-41.85 27.13-65.61 27.13z" fill="#ff51da"/></svg>