<svg enable-background="new 0 0 185 185" viewBox="0 0 185 185" xmlns="http://www.w3.org/2000/svg"><path d="m92.76 185.04c-.35 0-.69 0-1.04 0l.38-35.35h.64c15.34 0 29.73-5.96 40.59-16.82l25 25c-17.55 17.54-40.8 27.17-65.57 27.17z" fill="#b64942"/><path d="m91.71 185.03c-24.4-.27-47.33-9.92-64.58-27.17l25-25c10.67 10.69 24.87 16.66 39.97 16.82z" fill="#b64942"/><path d="m27.13 157.86c-36.17-36.17-36.17-95.03 0-131.2l25 25c-22.39 22.39-22.39 58.82 0 81.21z" fill="#4646e0"/><path d="m51.65 52.14-25-25c21.83-21.83 52.97-31.35 83.31-25.48l-6.72 34.71c-18.8-3.64-38.08 2.26-51.59 15.77z" fill="#17badb"/></svg>