<svg enable-background="new 0 0 185 185" viewBox="0 0 185 185" xmlns="http://www.w3.org/2000/svg"><path d="m9.84 133.77c-6.6-13.05-9.95-27.13-9.95-41.83h35.35c0 9.11 2.07 17.82 6.14 25.88z" fill="#009f45"/><path d="m92.66 184.71c-35.19 0-66.93-19.52-82.82-50.94l31.54-15.96c9.84 19.46 29.49 31.55 51.28 31.55z" fill="#b64942"/><path d="m116.06 181.73-8.9-34.21c4.94-1.28 9.69-3.23 14.13-5.79l17.66 30.63c-7.18 4.13-14.88 7.29-22.89 9.37z" fill="#ff8cb9"/><path d="m158.26 157.54-25-25c10.84-10.85 16.82-25.27 16.82-40.6h35.35c.01 24.78-9.64 48.08-27.17 65.6z" fill="#dbd600"/><path d="m185.44 92.61h-35.35c0-31.66-25.76-57.42-57.42-57.42-9.99 0-19.82 2.6-28.43 7.52l-17.54-30.7c13.94-7.96 29.83-12.17 45.96-12.17 51.16 0 92.78 41.62 92.78 92.77z" fill="#d1edff"/><path d="m35.24 92.61h-35.35c0-33.22 17.94-64.11 46.81-80.6l17.54 30.7c-17.89 10.21-29 29.33-29 49.9z" fill="#469b64"/></svg>