<svg enable-background="new 0 0 185 185" viewBox="0 0 185 185" xmlns="http://www.w3.org/2000/svg"><path d="m18.05 147.32c-13.07-17.69-19.41-39.57-17.85-61.61 1.57-22.27 11.14-43.24 26.94-59.04l25 25c-19.93 19.93-22.36 52.03-5.65 74.65z" fill="#4646e0"/><path d="m92.74 185c-23.76 0-47.51-9.04-65.6-27.13-3.29-3.29-6.34-6.83-9.08-10.54l28.43-21.01c1.7 2.3 3.6 4.51 5.65 6.56 22.38 22.38 58.81 22.39 81.21 0l25 25c-18.1 18.08-41.85 27.12-65.61 27.12z" fill="#ffb713"/><path d="m157.86 158.35-25-25c10.85-10.84 16.82-25.26 16.82-40.6s-5.97-29.76-16.82-40.6l25-25c17.52 17.52 27.17 40.82 27.17 65.6s-9.65 48.07-27.17 65.6z" fill="#f44a19"/></svg>