<svg enable-background="new 0 0 185 185" viewBox="0 0 185 185" xmlns="http://www.w3.org/2000/svg"><path d="m91.74 184.98c-12.13 0-24.26-2.39-35.82-7.17l13.65-32.57c14.45 5.97 30.34 5.91 44.74-.17l13.89 32.47c-11.74 4.96-24.1 7.44-36.46 7.44z" fill="#ff8cb9"/><path d="m128.2 177.54-13.89-32.47c13.96-5.89 24.86-16.8 30.69-30.72l32.79 13.56c-9.42 22.48-27.03 40.11-49.59 49.63z" fill="#f44a19"/><path d="m177.79 127.91-32.79-13.56c5.92-14.13 5.95-29.71.08-43.86s-16.94-25.18-31.17-31.07l13.65-32.57c22.99 9.5 40.87 27.33 50.36 50.19 9.48 22.88 9.44 48.04-.13 70.87z" fill="#ff8cb9"/><path d="m60.58 44.76-19.54-29.46c25.93-16.96 58.51-20.02 87.14-8.18l-13.65 32.57c-17.72-7.33-37.89-5.43-53.95 5.07z" fill="#009f45"/><path d="m56.54 178.07c-34.66-14.33-57.2-47.68-57.41-84.98l35.52-.2c.13 23.09 14.08 43.74 35.54 52.61z" fill="#5200c6"/></svg>