<svg enable-background="new 0 0 185 185" viewBox="0 0 185 185" xmlns="http://www.w3.org/2000/svg"><path d="m92.76 184.99c-23.76 0-47.51-9.04-65.6-27.13-17.52-17.52-27.17-40.82-27.17-65.6s9.65-48.08 27.17-65.6l25 25c-10.85 10.84-16.82 25.26-16.82 40.6s5.97 29.76 16.82 40.6c22.39 22.39 58.82 22.39 81.21 0l25 25c-18.09 18.09-41.85 27.13-65.61 27.13z" fill="#ff8cb9"/><path d="m157.88 158.34-25-25c22.39-22.39 22.39-58.82 0-81.21-10.84-10.84-25.26-16.82-40.6-16.82s-29.76 5.97-40.6 16.82l-25-25c36.17-36.17 95.03-36.17 131.2 0 36.18 36.18 36.18 95.04 0 131.21z" fill="#ff3b5c"/></svg>