<svg enable-background="new 0 0 185 185" viewBox="0 0 185 185" xmlns="http://www.w3.org/2000/svg"><path d="m157.87 158.34-25-25c10.85-10.85 16.82-25.27 16.82-40.61s-5.97-29.76-16.82-40.61-25.27-16.82-40.61-16.82-29.76 5.97-40.61 16.82l-25-25c17.53-17.51 40.83-27.16 65.61-27.16s48.08 9.65 65.61 27.18c36.17 36.17 36.17 95.03 0 131.2z" fill="#d1edff"/><path d="m92.74 185.04c-24.78 0-48.08-9.65-65.61-27.18-36.18-36.18-36.18-95.04 0-131.21l25 25c-10.85 10.85-16.82 25.27-16.82 40.61s5.97 29.76 16.82 40.61 25.27 16.82 40.61 16.82 29.76-5.97 40.61-16.82l25 25c-17.53 17.52-40.83 27.17-65.61 27.17z" fill="#f44a19"/></svg>