<svg enable-background="new 0 0 185 185" viewBox="0 0 185 185" xmlns="http://www.w3.org/2000/svg"><path d="m70.36 39.81-13.83-32.54c23.17-9.84 48.72-9.94 71.95-.27l-13.58 32.64c-14.39-5.98-30.2-5.92-44.54.17z" fill="#d1edff"/><path d="m39.81 70.59-32.63-13.59c9.38-22.53 26.91-40.19 49.36-49.73l13.83 32.53c-13.9 5.91-24.75 16.85-30.56 30.79z" fill="#ffb713"/><path d="m57.18 178.3c-22.88-9.52-40.68-27.38-50.12-50.29-9.45-22.91-9.41-48.13.12-71.01l32.64 13.58c-12.17 29.23 1.72 62.91 30.95 75.08z" fill="#d1edff"/><path d="m92.21 185.18c-12.06 0-24.18-2.36-35.66-7.13l13.58-32.64c17.64 7.34 37.72 5.44 53.7-5.08l19.44 29.53c-15.4 10.14-33.18 15.32-51.06 15.32z" fill="#4646e0"/><path d="m149.65 92.1c-.13-23.14-14.02-43.83-35.38-52.72l13.58-32.64c34.5 14.36 56.93 47.79 57.15 85.16z" fill="#009f45"/></svg>