<svg enable-background="new 0 0 185 185" viewBox="0 0 185 185" xmlns="http://www.w3.org/2000/svg"><path d="m157.84 158.66-24.99-24.99c19.93-19.93 22.35-52.01 5.65-74.63l28.42-21c13.06 17.69 19.4 39.56 17.85 61.59-1.57 22.27-11.13 43.23-26.93 59.03z" fill="#ff8cb9"/><path d="m138.5 59.05c-1.7-2.3-3.6-4.51-5.65-6.55-10.84-10.84-25.26-16.81-40.59-16.81s-29.75 5.97-40.59 16.81l-24.98-24.99c17.51-17.52 40.8-27.17 65.57-27.17s48.06 9.65 65.58 27.16c3.28 3.28 6.34 6.83 9.08 10.54z" fill="#b64942"/><path d="m27.16 158.18c-17.51-17.51-27.16-40.8-27.16-65.57s9.65-48.06 27.16-65.58l24.99 24.99c-10.84 10.84-16.81 25.25-16.81 40.59 0 15.33 5.97 29.75 16.81 40.59z" fill="#ffb713"/></svg>