<svg enable-background="new 0 0 185 185" viewBox="0 0 185 185" xmlns="http://www.w3.org/2000/svg"><path d="m185 92.84h-35.25c0-9.09-2.06-17.77-6.12-25.8l31.45-15.91c6.58 13.01 9.92 27.04 9.92 41.71z" fill="#4646e0"/><path d="m143.63 67.04c-9.81-19.4-29.41-31.45-51.13-31.45v-35.25c35.09 0 66.73 19.46 82.58 50.79z" fill="#469b64"/><path d="m63.95 43.19-17.6-30.53c7.16-4.13 14.84-7.28 22.83-9.35l8.87 34.11c-4.93 1.28-9.67 3.22-14.1 5.77z" fill="#d1edff"/><path d="m35.25 92.84h-35.25c0-24.71 9.62-47.94 27.09-65.41l24.92 24.92c-10.81 10.82-16.76 25.19-16.76 40.49z" fill="#dbd600"/><path d="m92.5 184.66c-51 0-92.5-41.5-92.5-92.5h35.25c0 31.57 25.68 57.25 57.25 57.25 9.96 0 19.76-2.59 28.35-7.5l17.48 30.61c-13.9 7.95-29.75 12.14-45.83 12.14z" fill="#ff3b5c"/><path d="m138.33 172.53-17.48-30.6c17.83-10.19 28.91-29.25 28.91-49.76h35.24c0 33.12-17.88 63.91-46.67 80.36z" fill="#5200c6"/></svg>