<svg enable-background="new 0 0 185 185" viewBox="0 0 185 185" xmlns="http://www.w3.org/2000/svg"><path d="m91.89 185c-24.77 0-48-9.62-65.55-27.16l24.99-24.99c11.01 11.01 25.65 16.99 41.22 16.81l.38 35.33c-.34.01-.69.01-1.04.01z" fill="#4646e0"/><path d="m92.93 184.99-.38-35.33c15.09-.16 29.28-6.13 39.96-16.81l24.99 24.99c-17.25 17.25-40.18 26.89-64.57 27.15z" fill="#4646e0"/><path d="m157.49 157.84-24.99-24.99c10.84-10.84 16.81-25.26 16.81-40.59s-5.97-29.75-16.81-40.59l24.99-24.99c17.52 17.52 27.16 40.8 27.16 65.57 0 24.78-9.64 48.07-27.16 65.59z" fill="#ff3b5c"/><path d="m132.98 52.15c-13.5-13.5-32.78-19.4-51.57-15.76l-6.71-34.69c30.32-5.87 61.45 3.65 83.27 25.47z" fill="#b64942"/></svg>