<svg enable-background="new 0 0 185 185" viewBox="0 0 185 185" xmlns="http://www.w3.org/2000/svg"><path d="m50.7 53.94-26.14-23.73c16.94-18.55 40.12-29.27 65.27-30.17l1.27 35.23c-15.57.55-29.91 7.19-40.4 18.67z" fill="#f44a19"/><path d="m.45 95.81c-.88-24.31 7.68-47.61 24.11-65.6l26.14 23.73c-10.17 11.14-15.47 25.56-14.92 40.61z" fill="#4646e0"/><path d="m93.08 185c-23.52 0-45.81-8.73-63.12-24.79-18.14-16.83-28.62-39.7-29.51-64.4l35.33-1.27c.55 15.28 7.04 29.44 18.27 39.86s25.85 15.84 41.18 15.3l1.27 35.23c-1.14.05-2.28.07-3.42.07z" fill="#f44a19"/><path d="m95.83 184.96-1.27-35.23c19.09-.69 36.55-10.76 46.68-26.95l29.99 18.67c-16.37 26.14-44.56 42.41-75.4 43.51z" fill="#ff8cb9"/><path d="m144.57 68.35c-9.77-20.91-31.03-33.87-54.14-33.06l-1.28-35.23c37.35-1.34 71.67 19.62 87.46 53.39z" fill="#ff51da"/></svg>